<?xml version="1.0" encoding="UTF-8"?>
<svg version="1.1" xmlns="http://www.w3.org/2000/svg" width="200" height="200">
<path d="M0 0 C4.07184074 2.30359118 6.08401741 5.08519011 7.6875 9.4375 C9.02270868 14.77833471 8.38165496 18.25537895 6.6875 23.4375 C6.3558205 26.70716866 6.3558205 26.70716866 9.25 29.328125 C10.38757693 30.45630324 11.53395164 31.57565758 12.6875 32.6875 C13.27966309 33.26870605 13.87182617 33.84991211 14.48193359 34.44873047 C18.24535455 38.11778382 22.08142954 41.68216551 26.1015625 45.0703125 C27.6875 46.4375 27.6875 46.4375 29.0234375 48.1796875 C30.70694645 49.75057307 30.70694645 49.75057307 33.41796875 49.14453125 C35.03638672 48.79455078 35.03638672 48.79455078 36.6875 48.4375 C47.62769219 47.70333969 54.88789563 48.53392013 63.9375 54.625 C70.72496473 61.56672529 73.03352227 68.96579051 73.0703125 78.53125 C72.8785351 86.85758548 69.9392966 92.60210124 64 98.3125 C56.67942686 104.12226067 48.96854899 106.50447561 39.6875 105.4375 C38.95096191 105.14327148 38.21442383 104.84904297 37.45556641 104.54589844 C34.58432173 103.45075078 32.7640436 103.10323085 29.6875 103.4375 C24.81606439 106.7637455 21.02184662 110.9728839 17.0625 115.3125 C15.95466568 116.48056734 14.84401166 117.64596725 13.73046875 118.80859375 C11.01586485 121.65505235 8.34239308 124.53531571 5.6875 127.4375 C6.17210693 128.8443103 6.17210693 128.8443103 6.66650391 130.27954102 C8.28688277 135.2914015 8.69103202 140.43260584 7 145.49609375 C4.26594134 150.79333241 0.23347231 153.58884256 -5.3125 155.4375 C-11.30170055 156.02467652 -15.40731116 154.74317074 -20.3125 151.4375 C-24.88586427 146.62960422 -25.72616876 142.52849053 -25.66015625 136.078125 C-24.95243696 130.70263919 -22.07764801 126.91640779 -18 123.5 C-11.45585937 120.91278161 -6.8886249 121.24545837 -0.3125 123.4375 C3.28747023 123.4375 4.04516547 122.42919859 6.50845337 119.98208618 C6.99292938 119.48526337 7.4774054 118.98844055 7.9765625 118.4765625 C8.48045502 117.97079681 8.98434753 117.46503113 9.50350952 116.94393921 C10.56770997 115.87301493 11.62830564 114.79849826 12.68554688 113.72070312 C14.30610905 112.06901371 15.93707346 110.42820837 17.5703125 108.7890625 C18.6021882 107.74801564 19.63345895 106.70636876 20.6640625 105.6640625 C21.15258698 105.17128815 21.64111145 104.67851379 22.1444397 104.17080688 C24.73692251 101.54358035 24.73692251 101.54358035 26.6875 98.4375 C26.08164063 98.18097656 25.47578125 97.92445312 24.8515625 97.66015625 C20.52376397 95.2150282 18.32620909 90.55670402 16.92578125 85.91015625 C16.44627732 83.75748966 16.0254479 81.61650735 15.6875 79.4375 C13.0475 79.4375 10.4075 79.4375 7.6875 79.4375 C7.28917969 78.36371094 6.89085938 77.28992188 6.48046875 76.18359375 C5.94540218 74.74736242 5.41024086 73.31116638 4.875 71.875 C4.48344727 70.81829102 4.48344727 70.81829102 4.08398438 69.74023438 C3.69243164 68.69125977 3.69243164 68.69125977 3.29296875 67.62109375 C2.93948364 66.67061157 2.93948364 66.67061157 2.57885742 65.70092773 C1.35164931 62.58467289 0.00681118 59.51589276 -1.3125 56.4375 C-4.2825 63.6975 -7.2525 70.9575 -10.3125 78.4375 C-14.9325 78.7675 -19.5525 79.0975 -24.3125 79.4375 C-28.6025 89.3375 -32.8925 99.2375 -37.3125 109.4375 C-37.9725 109.4375 -38.6325 109.4375 -39.3125 109.4375 C-40.88340902 105.48819826 -42.44987167 101.53717146 -44.01220703 97.58447266 C-44.5445106 96.23958609 -45.07803404 94.89518168 -45.61279297 93.55126953 C-46.38048081 91.62136783 -47.1437893 89.68978427 -47.90625 87.7578125 C-48.36708984 86.59523926 -48.82792969 85.43266602 -49.30273438 84.23486328 C-50.3125 81.4375 -50.3125 81.4375 -50.3125 79.4375 C-52.9525 79.4375 -55.5925 79.4375 -58.3125 79.4375 C-58.5909375 80.984375 -58.5909375 80.984375 -58.875 82.5625 C-60.190099 87.25111382 -63.35042557 89.80788267 -67.3125 92.4375 C-72.4796159 94.15987197 -77.41849758 94.09311622 -82.5625 92.3125 C-86.7421989 89.4627053 -89.68114324 86.33157029 -91.3125 81.4375 C-91.83416057 76.46889685 -91.8849051 72.58231021 -89.625 68.0625 C-86.36231492 64.35891153 -83.02021139 60.70738627 -77.921875 60.19921875 C-71.83133322 60.04113092 -68.0384807 60.17259059 -63.3125 64.4375 C-59.87510513 67.96779744 -58.76829932 70.53765733 -58.3125 75.4375 C-55.0125 75.4375 -51.7125 75.4375 -48.3125 75.4375 C-44.37157851 82.86462126 -41.367424 90.61689457 -38.3125 98.4375 C-34.22786542 90.59355571 -30.74601687 82.5821214 -27.3125 74.4375 C-22.6925 74.1075 -18.0725 73.7775 -13.3125 73.4375 C-9.6825 64.1975 -6.0525 54.9575 -2.3125 45.4375 C-1.3225 45.4375 -0.3325 45.4375 0.6875 45.4375 C1.10261841 46.74738892 1.10261841 46.74738892 1.52612305 48.08374023 C2.56250427 51.31927713 3.61732502 54.54752621 4.68530273 57.77270508 C5.14370746 59.1699876 5.59461297 60.56975353 6.0378418 61.97192383 C6.67624083 63.98698224 7.3410631 65.9915759 8.01171875 67.99609375 C8.6008606 69.81065063 8.6008606 69.81065063 9.2019043 71.66186523 C10.41194486 74.68307621 10.41194486 74.68307621 13.35473633 75.34008789 C14.12454834 75.37223389 14.89436035 75.40437988 15.6875 75.4375 C15.749375 74.303125 15.81125 73.16875 15.875 72 C16.86670181 64.10828845 21.68017414 58.30178431 26.6875 52.4375 C17.75473204 43.36965434 17.75473204 43.36965434 8.3125 34.83984375 C6.33652936 33.13461909 4.49457351 31.31986824 2.6875 29.4375 C1.90375 29.7675 1.12 30.0975 0.3125 30.4375 C-5.53590418 32.05085288 -10.9297887 32.27586138 -16.6875 30.25 C-21.0986882 27.20417958 -23.83744762 23.60018334 -25.3125 18.4375 C-25.97966183 12.54423718 -24.81755598 8.15698382 -21.3125 3.4375 C-15.00576889 -2.45637512 -7.85279235 -3.35091325 0 0 Z M26.44921875 59.359375 C21.45972807 65.24498263 18.87460359 71.30089979 19.3359375 79.05859375 C20.39165128 86.20225696 23.35568953 91.55207366 28.6875 96.4375 C35.22219209 101.10513721 41.78674232 102.41234241 49.6875 101.4375 C57.02648776 99.10385456 62.42697147 94.8282928 66.6875 88.4375 C69.86296132 81.96896768 69.86138355 74.434164 67.84765625 67.578125 C64.49653789 60.13119532 59.06522323 55.71807985 51.6875 52.4375 C42.16975556 49.97473733 33.46459643 52.58590689 26.44921875 59.359375 Z " fill="#547C8E" transform="translate(108.3125,25.5625)"/>
<path d="M0 0 C1.00675781 0.44214844 2.01351562 0.88429688 3.05078125 1.33984375 C26.55045249 12.34293236 44.26878748 33.00069999 53.18359375 57.21484375 C54.23595733 60.45674036 55.15623991 63.69797734 56 67 C56.3403125 68.32644531 56.3403125 68.32644531 56.6875 69.6796875 C62.1623856 95.91351434 56.2292102 122.94538382 41.94580078 145.2902832 C27.34410342 167.25760572 4.58498699 181.90633573 -21.16796875 187.109375 C-47.19619638 191.6083557 -73.50633048 186.62120707 -95.41796875 171.87109375 C-116.9064875 156.29923221 -132.51681967 134.50420615 -137.33984375 108.1015625 C-141.21212686 82.0535531 -136.56960628 56.48360038 -121.890625 34.53125 C-118.56050017 30.07273576 -114.85034798 26.01108357 -111 22 C-110.154375 21.113125 -109.30875 20.22625 -108.4375 19.3125 C-107.633125 18.549375 -106.82875 17.78625 -106 17 C-105.48824219 16.49339844 -104.97648437 15.98679687 -104.44921875 15.46484375 C-77.01068854 -10.32854974 -33.69875757 -14.99146249 0 0 Z M-100 19 C-100.72574219 19.58136719 -101.45148438 20.16273437 -102.19921875 20.76171875 C-119.61289396 35.25791958 -130.58928851 57.57307794 -133 80 C-134.42816133 105.35199305 -128.65396483 129.28994678 -112 149 C-111.34386719 149.80179688 -110.68773438 150.60359375 -110.01171875 151.4296875 C-94.94424421 169.11399948 -73.13467154 180.48867052 -50 183 C-22.61456553 184.62458704 1.43699406 177.29634135 22.39599609 159.27197266 C39.77530119 143.75947116 51.62378348 120.35397729 53 97 C54.2521087 73.54586622 47.62779926 48.79549374 31.80004883 30.96850586 C29.58643334 28.59030083 27.29920342 26.29567162 25 24 C24.41863281 23.34773438 23.83726562 22.69546875 23.23828125 22.0234375 C10.20942028 7.64902666 -12.89792581 -1.95461286 -32 -3 C-57.13931927 -4.16728436 -80.53378678 2.42302066 -100 19 Z " fill="#5F8595" transform="translate(140,10)"/>
<path d="M0 0 C4.41214525 2.16596222 7.34279599 4.86657153 10 9 C10.75 12.3125 10.75 12.3125 11 15 C14.3 15 17.6 15 21 15 C24.94092149 22.42712126 27.945076 30.17939457 31 38 C31.804375 37.175 32.60875 36.35 33.4375 35.5 C36 33 36 33 37 33 C36.49228528 38.96564796 34.61407872 43.63809899 32 49 C31.34 49 30.68 49 30 49 C28.42909098 45.05069826 26.86262833 41.09967146 25.30029297 37.14697266 C24.7679894 35.80208609 24.23446596 34.45768168 23.69970703 33.11376953 C22.93201919 31.18386783 22.1687107 29.25228427 21.40625 27.3203125 C20.94541016 26.15773926 20.48457031 24.99516602 20.00976562 23.79736328 C19 21 19 21 19 19 C16.36 19 13.72 19 11 19 C10.7215625 20.546875 10.7215625 20.546875 10.4375 22.125 C9.122401 26.81361382 5.96207443 29.37038267 2 32 C-3.1671159 33.72237197 -8.10599758 33.65561622 -13.25 31.875 C-17.4296989 29.0252053 -20.36864324 25.89407029 -22 21 C-22.52166057 16.03139685 -22.5724051 12.14481021 -20.3125 7.625 C-14.06762405 0.53622189 -9.25043213 -0.94205249 0 0 Z " fill="#4C7689" transform="translate(39,86)"/>
<path d="M0 0 C3.71195444 1.88825509 6.34152631 4.49509371 8.19921875 8.2265625 C9.97456446 13.94128477 9.79715505 19.4412698 7.171875 24.7890625 C3.54846775 28.80418945 0.39944598 31.8627953 -5.12109375 32.625 C-10.43935828 32.8697343 -14.03568854 32.06451648 -18.41015625 28.96484375 C-22.41685504 25.22947897 -24.30347959 20.72553223 -24.640625 15.2890625 C-23.89812256 9.44185577 -21.96456962 6.00179811 -17.515625 1.9765625 C-12.29623326 -1.59460027 -6.06633955 -1.8376138 0 0 Z " fill="#467185" transform="translate(160.140625,86.6484375)"/>
<path d="M0 0 C1.32 0.66 2.64 1.32 4 2 C1.723036 9.19041263 -1.0477963 16.05833185 -4 23 C-8.62 23.33 -13.24 23.66 -18 24 C-20.31 29.28 -22.62 34.56 -25 40 C-26.32 39.67 -27.64 39.34 -29 39 C-26.83324088 32.04356283 -24.09116478 25.60005454 -21 19 C-16.38 18.67 -11.76 18.34 -7 18 C-4.69 12.06 -2.38 6.12 0 0 Z " fill="#5B8293" transform="translate(102,81)"/>
<path d="M0 0 C1.32 0.66 2.64 1.32 4 2 C1.94235079 8.45353615 -0.42383482 14.7361263 -3 21 C-3.66 20.34 -4.32 19.68 -5 19 C-5.33 19.33 -5.66 19.66 -6 20 C-8.53049402 20.07313567 -11.03304837 20.09247527 -13.5625 20.0625 C-14.27341797 20.05798828 -14.98433594 20.05347656 -15.71679688 20.04882812 C-17.47790013 20.03700864 -19.23896036 20.01907263 -21 20 C-21 19.67 -21 19.34 -21 19 C-16.38 18.67 -11.76 18.34 -7 18 C-4.69 12.06 -2.38 6.12 0 0 Z " fill="#7494A3" transform="translate(102,81)"/>
<path d="M0 0 C1.32 0.33 2.64 0.66 4 1 C3.59421835 7.49250633 -1.18522041 12.22842945 -5.625 16.5625 C-8 18 -8 18 -10.25 17.875 C-12 17 -12 17 -13 15 C-11.700625 14.2575 -11.700625 14.2575 -10.375 13.5 C-5.54187624 10.297051 -1.82812762 5.48438286 0 0 Z " fill="#6B8E9D" transform="translate(176,109)"/>
<path d="M0 0 C1.32 0.33 2.64 0.66 4 1 C1.10933941 10.59453303 1.10933941 10.59453303 -2 14 C-2.99 13.67 -3.98 13.34 -5 13 C-4.54554036 11.58208592 -4.08625056 10.16571954 -3.625 8.75 C-3.24214844 7.56664063 -3.24214844 7.56664063 -2.8515625 6.359375 C-2.04826333 4.13372042 -1.10288338 2.09068328 0 0 Z " fill="#688C9B" transform="translate(78,107)"/>
<path d="M0 0 C0.125 2.875 0.125 2.875 0 6 C-0.66 6.66 -1.32 7.32 -2 8 C-2.33 7.34 -2.66 6.68 -3 6 C-3.33 6.33 -3.66 6.66 -4 7 C-6.53049402 7.07313567 -9.03304837 7.09247527 -11.5625 7.0625 C-12.27341797 7.05798828 -12.98433594 7.05347656 -13.71679688 7.04882812 C-15.47790013 7.03700864 -17.23896036 7.01907263 -19 7 C-19 6.67 -19 6.34 -19 6 C-14.38 5.67 -9.76 5.34 -5 5 C-4.67 4.01 -4.34 3.02 -4 2 C-1 0 -1 0 0 0 Z " fill="#88A4B0" transform="translate(100,94)"/>
<path d="M0 0 C1.32 0.33 2.64 0.66 4 1 C3.25 5.75 3.25 5.75 1 8 C0.67 7.34 0.34 6.68 0 6 C-0.99 6.66 -1.98 7.32 -3 8 C-2.690625 7.236875 -2.38125 6.47375 -2.0625 5.6875 C-1.32106407 3.81210323 -0.63771783 1.91315348 0 0 Z " fill="#7B9AA8" transform="translate(176,109)"/>
<path d="M0 0 C1.32 0.33 2.64 0.66 4 1 C3.34 3.31 2.68 5.62 2 8 C0.68 7.34 -0.64 6.68 -2 6 C-1.34 4.02 -0.68 2.04 0 0 Z " fill="#7999A7" transform="translate(78,107)"/>
<path d="M0 0 C0.66 0.33 1.32 0.66 2 1 C-0.31 3.31 -2.62 5.62 -5 8 C-5 5 -5 5 -2.5 2.3125 C-1.675 1.549375 -0.85 0.78625 0 0 Z " fill="#7A9AA7" transform="translate(91,149)"/>
</svg>
